<svg width="506" height="58" viewBox="0 0 506 58" fill="none" xmlns="http://www.w3.org/2000/svg">
<path d="M34.2925 0L20.6936 13.5684H49.2269L49.2117 37.3398L62.8487 23.7409V0H34.2925Z" fill="#3AA8C1"/>
<path d="M28.5028 57.99L42.1475 44.3758L13.5989 44.3987L13.6066 20.6121L0.0228938 34.2033L0 57.99H28.5028Z" fill="#3AA8C1"/>
<path d="M274.378 23.2826C278.865 18.8031 275.294 13.4612 268.762 13.4612H224.935L231.491 20.0012H264.717L257.605 27.0983C253.285 22.985 246.44 23.0537 242.212 27.3119L225.096 44.5433H238.191L250.035 32.5928L261.878 44.5433H274.974L264.061 33.5696L274.378 23.2826Z" fill="black"/>
<path d="M289.837 33.4395C287.792 31.3944 287.792 28.0824 289.837 26.0448L294.728 21.1608C295.469 20.4206 296.476 20.0009 297.529 20.0085H313.082L319.652 13.4685H290.722C288.952 13.4685 287.25 14.1706 285.998 15.4221L276.909 24.4881C274.3 27.0903 274.3 31.3104 276.909 33.9127L285.617 42.5971C286.471 43.4518 287.54 44.0394 288.692 44.337L295.194 37.8504C294.347 37.6062 293.561 37.156 292.927 36.5226L289.837 33.4395Z" fill="black"/>
<path d="M408.562 27.2356V13.4612H384.302L370.734 26.9914V13.4612H346.474L336.645 23.2597L328.777 15.4148C328.014 14.6517 327.075 14.0946 326.06 13.7741L319.261 20.5506C319.78 20.8025 320.253 21.1306 320.665 21.5427L323.702 24.5723C325.747 26.6175 325.747 29.9295 323.702 31.967L319.139 36.5152C318.414 37.2402 317.437 37.6523 316.414 37.6676L301.8 37.9499L295.192 44.5433H323.786C325.526 44.5433 327.19 43.8565 328.418 42.6279L351.114 19.9935H353.105V44.5433H364.323L388.942 19.9935H390.934V44.5433L408.539 27.2356H408.562Z" fill="black"/>
<path d="M440.343 13.4612H439.938H435.779H431.62H429.125L397.951 44.5433H409.161L433.787 20.0012H435.779V44.5433H453.384V13.4612H440.343Z" fill="black"/>
<path d="M229.258 24.5114L220.192 15.4684C218.941 14.2169 217.247 13.5224 215.476 13.5224H183.295L183.318 13.4995H172.1L160.394 26.4345L147.802 13.5224H131.746H124.573L120.345 17.7349V31.5017H89.0872V13.5224H80.2197L75.992 17.7349V44.5511H89.0872V38.0188H120.345V44.5511H133.44V15.2547L153.022 35.4089V44.5435H167.781V28.9528L176.763 20.0014H205.021C206.41 20.0014 207.738 20.5584 208.723 21.5352L213.263 26.0682C215.308 28.1058 215.308 31.4101 213.263 33.4476L210.203 36.5002C209.219 37.477 207.891 38.0264 206.502 38.0264H192.018L185.485 44.5359H215.85C217.621 44.5359 219.315 43.8338 220.566 42.5899L229.258 33.9208C231.861 31.3262 231.861 27.1061 229.258 24.5114Z" fill="black"/>
<path d="M505.473 13.4688H494.262L483.517 24.2441L472.712 13.4611L455.083 13.4382L469.827 28.1589L453.389 44.5433H464.607L475.436 33.7603L486.242 44.5433H503.855L489.119 29.8455L505.473 13.4688Z" fill="black"/>
</svg>
